<?xml version="1.0" encoding="UTF-8"?>
<svg width="72px" height="72px" viewBox="0 0 72 72" version="1.1" xmlns="http://www.w3.org/2000/svg" xmlns:xlink="http://www.w3.org/1999/xlink">
    <!-- Generator: Sketch 46.2 (44496) - http://www.bohemiancoding.com/sketch -->
    <title>navigate_white</title>
    <desc>Created with Sketch.</desc>
    <defs></defs>
    <g id="Mains" stroke="none" stroke-width="1" fill="none" fill-rule="evenodd">
        <g id="Logo" transform="translate(-213.000000, -64.000000)" fill-rule="nonzero" fill="#FFFFFF">
            <g id="Teal-white" transform="translate(189.000000, 40.000000)">
                <g id="navigate_white" transform="translate(24.000000, 24.000000)">
                    <path d="M40.4978501,11.5411144 C42.4702515,10.4020645 43.7647026,8.48994721 43.7647026,6.32234604 C43.7647026,2.83059238 40.4068444,0 36.2646678,0 C32.1226582,0 28.764466,2.83059238 28.764466,6.32234604 C28.764466,8.46278006 30.0273574,10.3533607 31.9581801,11.4971965 C13.9789694,13.1907097 0,26.0445748 0,41.6528798 C0,58.4131848 16.1178528,72 35.999833,72 C55.8819802,72 72,58.4131848 72,41.6528798 C72,26.17661 58.2571443,13.4072023 40.4978501,11.5411144 Z M36.321275,3.71908504 C38.0929631,3.71908504 39.5293496,4.92992375 39.5293496,6.42341349 C39.5293496,7.91690323 38.09313,9.12774194 36.321275,9.12774194 C34.5495869,9.12774194 33.1133674,7.91690323 33.1133674,6.42341349 C33.1133674,4.92978299 34.5497539,3.71908504 36.321275,3.71908504 Z M36.019871,66.7539238 C19.5593694,66.7539238 6.21593666,55.5055953 6.21593666,41.6300762 C6.21593666,27.7544164 19.5595363,16.5059472 36.019871,16.5059472 C52.4798716,16.5059472 65.8236383,27.7544164 65.8236383,41.6300762 C65.8236383,55.5055953 52.4798716,66.7539238 36.019871,66.7539238 Z" id="Shape"></path>
                    <path d="M54.0391106,23.9127768 L43.0073406,46.3615909 L18.94518,59.6453452 L30.1626234,37.519646 L30.1228482,37.4926142 L54.0391106,23.9127768 C54.0279133,23.9048926 54.0168833,23.8970083 54.0058532,23.8892648 C42.2131734,15.7411371 24.8126912,17.1894522 15.1406316,27.1242154 C5.4685719,37.0588377 7.18793033,51.7178367 18.98061,59.8659644 C30.7732898,68.0139513 48.173772,66.5656361 57.8458316,56.6307322 C67.5086995,46.7056836 65.801374,32.065269 54.0391106,23.9127768 Z" id="Shape"></path>
                    <polygon id="Shape" points="39.4520548 44.9523765 31.8160002 39.6734694 26.630137 51.9183673"></polygon>
                </g>
            </g>
        </g>
    </g>
</svg>