<?xml version="1.0" encoding="UTF-8"?>
<svg width="72px" height="72px" viewBox="0 0 72 72" version="1.1" xmlns="http://www.w3.org/2000/svg" xmlns:xlink="http://www.w3.org/1999/xlink">
    <!-- Generator: Sketch 46.2 (44496) - http://www.bohemiancoding.com/sketch -->
    <title>navigate_gray</title>
    <desc>Created with Sketch.</desc>
    <defs></defs>
    <g id="Mains" stroke="none" stroke-width="1" fill="none" fill-rule="evenodd">
        <g id="Logo" transform="translate(-510.000000, -64.000000)" fill-rule="nonzero" fill="#414141">
            <g id="Fresh-black" transform="translate(486.000000, 40.000000)">
                <g id="navigate_gray" transform="translate(24.000000, 24.000000)">
                    <path d="M40.4978501,11.5411144 C42.4702515,10.4020645 43.7647026,8.48994721 43.7647026,6.32234604 C43.7647026,2.83059238 40.4068444,0 36.2646678,0 C32.1226582,0 28.764466,2.83059238 28.764466,6.32234604 C28.764466,8.46278006 30.0273574,10.3533607 31.9581801,11.4971965 C13.9789694,13.1907097 0,26.0445748 0,41.6528798 C0,58.4131848 16.1178528,72 35.999833,72 C55.8819802,72 72,58.4131848 72,41.6528798 C72,26.17661 58.2571443,13.4072023 40.4978501,11.5411144 Z M36.321275,3.71908504 C38.0929631,3.71908504 39.5293496,4.92992375 39.5293496,6.42341349 C39.5293496,7.91690323 38.09313,9.12774194 36.321275,9.12774194 C34.5495869,9.12774194 33.1133674,7.91690323 33.1133674,6.42341349 C33.1133674,4.92978299 34.5497539,3.71908504 36.321275,3.71908504 Z M36.019871,66.7539238 C19.5593694,66.7539238 6.21593666,55.5055953 6.21593666,41.6300762 C6.21593666,27.7544164 19.5595363,16.5059472 36.019871,16.5059472 C52.4798716,16.5059472 65.8236383,27.7544164 65.8236383,41.6300762 C65.8236383,55.5055953 52.4798716,66.7539238 36.019871,66.7539238 Z" id="Shape"></path>
                    <path d="M53.4552618,24.2354199 L42.4805169,46.6313766 L18.5427378,59.8838533 L29.7021963,37.8102508 L29.6626267,37.7832826 L53.4552618,24.2354199 C53.4441224,24.2275542 53.4331494,24.2196884 53.4221763,24.2119632 C41.690455,16.0830208 24.3799189,17.5279258 14.7578557,27.4392968 C5.13579263,37.3505274 6.8462634,51.9750107 18.5779847,60.1039531 C30.309706,68.232755 47.6202421,66.78785 57.2423053,56.8763385 C66.8552241,46.9746592 65.156724,32.3687165 53.4552618,24.2354199 Z" id="Shape"></path>
                    <polygon id="Shape" points="38.8421053 45.0989429 31.5074738 39.7894737 26.5263158 52.1052632"></polygon>
                </g>
            </g>
        </g>
    </g>
</svg>